<svg id="Capa_1" data-name="Capa 1" xmlns="http://www.w3.org/2000/svg" viewBox="0 0 325.86 206.82"><defs><style>.cls-1{fill:#fff;}</style></defs><title>behancelogo</title><path class="cls-1" d="M1476.91,433.35c2.91.72,4.81,1.17,6.7,1.66,11.19,2.88,18.67,10.1,22.68,20.63,7.09,18.65,7.27,37.57-.74,55.91-6.17,14.11-17.72,23.11-32.3,27.32a106,106,0,0,1-27.34,4.41c-32.86.52-65.74.14-98.61.29-4,0-5.31-.94-5.3-5.15q.2-96,0-192c0-4,1-5.29,5.19-5.27,32.47.17,64.94,0,97.4.12,10.71,0,21.28,1.13,31.14,5.77,18,8.45,26.93,23.13,28.15,42.47a68.64,68.64,0,0,1-2,20.33c-2.63,10.83-10.17,17.78-20.49,21.73Zm-57.53,20.07c-9.16,0-18.32.05-27.47,0-2.42,0-3.73.47-3.72,3.3.09,15.89.07,31.78,0,47.67,0,2.32.73,3.43,3.25,3.42,18-.09,36.09.05,54.13-.19,6.64-.08,12.84-2.16,17.23-7.56,6-7.38,6.33-16.17,5.19-25-1.87-14.46-10.29-21.61-24.81-21.62Zm-.4-31v-.15c9,0,18,.21,27-.06,7.25-.22,11.55-3.61,13.62-10.51,2.4-8,2.75-16.16,0-24.22-2.2-6.52-7.05-10.24-13.9-10.28-17.89-.11-35.78,0-53.67-.09-3,0-3.94,1.16-3.91,4.06.1,12.38.12,24.75,0,37.13,0,3.14,1,4.24,4.16,4.18C1401.22,422.33,1410.1,422.45,1419,422.45Z" transform="translate(-1342 -341.18)"/><path class="cls-1" d="M1614.78,480.42c-15.9,0-31.8.08-47.7-.05-3.36,0-4.47,1-4.26,4.41,1,16.53,10.85,27.6,27.25,30.3a52.34,52.34,0,0,0,23.61-1.4c8.56-2.55,14.61-7.76,16.78-16.89a4.28,4.28,0,0,1,3.16-2.53c9.69-.2,19.4-.06,29.1-.15,3,0,3.07,1.62,3,3.91-.68,20.61-13.11,37.22-33.76,44.26a105.1,105.1,0,0,1-62.88,1.74c-25.11-6.9-40.52-23.86-46.8-48.77-6.17-24.48-2.75-48,10.32-69.67,11.57-19.17,29.28-29.31,51.28-31.87,14.85-1.73,29.58-1.16,43.78,4.44,15.11,6,25.57,16.69,32.15,31.27,6.75,14.93,8.47,30.78,8,47-.1,3.21-1.47,4.08-4.48,4.06C1647.12,480.36,1631,480.42,1614.78,480.42ZM1563,453.49h61.58c1.87,0,4.15.34,3.83-2.65-1.29-11.93-7.45-24.44-21.41-27.19a51.71,51.71,0,0,0-18.77,0C1575.25,426,1563.17,440.55,1563,453.49Z" transform="translate(-1342 -341.18)"/><path class="cls-1" d="M1595.43,353.24c12.39,0,24.78.09,37.17-.07,3.13,0,4.31.81,4.18,4.08-.23,5.78-.17,11.58,0,17.37.07,2.69-1,3.5-3.55,3.49q-38-.08-76,0c-2.54,0-3.68-.82-3.63-3.5.12-5.92.14-11.85,0-17.77-.07-2.88,1.09-3.68,3.83-3.66C1570.1,353.3,1582.76,353.24,1595.43,353.24Z" transform="translate(-1342 -341.18)"/></svg>