<svg id="Capa_1" data-name="Capa 1" xmlns="http://www.w3.org/2000/svg" viewBox="0 0 1899.61 472.76"><defs><style>.cls-1{font-size:324.59px;font-family:AvenirNext-Bold, Avenir Next;font-weight:700;}.cls-1,.cls-2{fill:#fff;}</style></defs><title>logo1</title><text class="cls-1" transform="translate(0 315.01)">ZAI</text><path class="cls-2" d="M1045.28,182a62.25,62.25,0,0,0-20.77-14.6A65.63,65.63,0,0,0,997.73,162a63.91,63.91,0,0,0-47.39,20,63.11,63.11,0,0,0-13.47,22.24,81.25,81.25,0,0,0-4.71,27.91A82.23,82.23,0,0,0,937,260.86a68.27,68.27,0,0,0,13.47,22.56,61.45,61.45,0,0,0,20.61,14.77,68.9,68.9,0,0,0,53.24,0,63.22,63.22,0,0,0,20.77-14.77,66.64,66.64,0,0,0,13.63-22.56,82,82,0,0,0,4.87-28.73,78.77,78.77,0,0,0-4.87-27.91A66.5,66.5,0,0,0,1045.28,182Z" transform="translate(-20.39 -33)"/><path class="cls-2" d="M1321.51,182a62.35,62.35,0,0,0-20.77-14.6A65.66,65.66,0,0,0,1274,162a63.91,63.91,0,0,0-47.39,20,63,63,0,0,0-13.47,22.24,86.12,86.12,0,0,0,.16,56.64,67.93,67.93,0,0,0,13.47,22.56,61.35,61.35,0,0,0,20.61,14.77,68.88,68.88,0,0,0,53.23,0,63.16,63.16,0,0,0,20.78-14.77A66.8,66.8,0,0,0,1335,260.86a82,82,0,0,0,4.87-28.73,78.77,78.77,0,0,0-4.87-27.91A66.66,66.66,0,0,0,1321.51,182Z" transform="translate(-20.39 -33)"/><path class="cls-2" d="M618,33V436H1920V33ZM867.89,165.59H803V348H747.47V165.59H682.55V118.2H867.89ZM1113.61,282a113.53,113.53,0,0,1-26.13,38.62,116.34,116.34,0,0,1-39.76,24.84,146.56,146.56,0,0,1-99.82,0,116.7,116.7,0,0,1-39.6-24.84A113.36,113.36,0,0,1,882.18,282q-9.42-22.56-9.42-49.83,0-27.58,9.42-49.82a109.13,109.13,0,0,1,26.12-37.82,116.69,116.69,0,0,1,39.6-24,151.79,151.79,0,0,1,99.82,0,116.35,116.35,0,0,1,39.76,24,109.29,109.29,0,0,1,26.13,37.82q9.41,22.23,9.41,49.82Q1123,259.4,1113.61,282Zm276.23,0a113.53,113.53,0,0,1-26.13,38.62,116.29,116.29,0,0,1-39.77,24.84,146.53,146.53,0,0,1-99.81,0,116.6,116.6,0,0,1-39.6-24.84A113.38,113.38,0,0,1,1158.4,282Q1149,259.4,1149,232.13q0-27.58,9.41-49.82a109.15,109.15,0,0,1,26.13-37.82,116.59,116.59,0,0,1,39.6-24,151.76,151.76,0,0,1,99.81,0,116.3,116.3,0,0,1,39.77,24,109.29,109.29,0,0,1,26.13,37.82q9.4,22.23,9.41,49.82Q1399.25,259.4,1389.84,282ZM1645,348h-63l-92.5-150.29h-1l1.3,150.29h-53.88V118.2h63.29l92.19,150h1l-1.3-150H1645Zm98.18-157.1a21.49,21.49,0,0,0,7.14,6.81,63.29,63.29,0,0,0,11.2,5.36q6.49,2.43,14.61,5,11.69,3.9,24.34,8.6a91.34,91.34,0,0,1,23,12.5,65.69,65.69,0,0,1,17.2,19.31q6.82,11.53,6.82,28.73,0,19.8-7.31,34.25a68.13,68.13,0,0,1-19.63,23.85,84.18,84.18,0,0,1-28.24,14,118.82,118.82,0,0,1-32.79,4.54,135.45,135.45,0,0,1-47.71-8.6q-23.05-8.6-38.3-24.5l36.35-37a67.11,67.11,0,0,0,22.24,17.37,60.32,60.32,0,0,0,27.42,7,55.52,55.52,0,0,0,12-1.3,29.78,29.78,0,0,0,10.23-4.22,21.29,21.29,0,0,0,7-7.79,24.55,24.55,0,0,0,2.59-11.69,18.51,18.51,0,0,0-3.24-11,31.85,31.85,0,0,0-9.25-8.28,75.11,75.11,0,0,0-14.93-6.82q-8.94-3.07-20.29-6.65a194.63,194.63,0,0,1-21.59-8.44,72.12,72.12,0,0,1-18.82-12.5,57.72,57.72,0,0,1-13.31-18.5q-5-10.86-5-26.45,0-19.15,7.79-32.79a67.71,67.71,0,0,1,20.45-22.39,87.6,87.6,0,0,1,28.56-12.82,129.24,129.24,0,0,1,32.14-4.06,119.35,119.35,0,0,1,39.76,7.14,102.47,102.47,0,0,1,35.54,21.1l-35.38,37.33a50.18,50.18,0,0,0-18.66-14.45,52.71,52.71,0,0,0-22.24-5.35,66.13,66.13,0,0,0-11.2,1,29.06,29.06,0,0,0-10.22,3.73,25.35,25.35,0,0,0-7.63,7.14q-3.09,4.4-3.08,11.2A18.09,18.09,0,0,0,1743.15,190.91Z" transform="translate(-20.39 -33)"/></svg>