<svg id="Capa_1" data-name="Capa 1" xmlns="http://www.w3.org/2000/svg" viewBox="0 0 232.57 238.56"><defs><style>.cls-1{fill:#fff;}</style></defs><title>xlogo</title><path class="cls-1" d="M812.39,324.5c-2,2.4-3.54,4.23-5.1,6Q767.54,376.78,727.73,423c-1.69,2-1.72,3.16-.28,5.25Q773,494.27,818.32,560.43c.45.66.85,1.35,1.48,2.36-1.2.08-2,.18-2.78.18-21.25,0-42.49,0-63.74,0a4.33,4.33,0,0,1-4.07-2.13q-29.91-43.73-60-87.37c-.65-.94-1.32-1.88-2.18-3.1-.94,1.05-1.7,1.89-2.44,2.75q-37.89,44.06-75.83,88.07a5.38,5.38,0,0,1-3.53,1.66c-5.81.17-11.63.08-18,.08.75-1,1.16-1.69,1.65-2.26q43.5-50.61,87-101.16c1.55-1.8,1.78-3,.34-5.06q-44-63.78-87.76-127.69c-.4-.58-.71-1.23-1.24-2.14,1.16-.07,2-.16,2.75-.16,21.24,0,42.49,0,63.74-.05a4.32,4.32,0,0,1,4,2.16q27.93,40.83,56,81.6c.84,1.22,1.69,2.43,2.74,3.93.9-1,1.61-1.79,2.29-2.58q35.7-41.51,71.35-83a5.15,5.15,0,0,1,4.44-2.08C800.28,324.59,805.93,324.5,812.39,324.5ZM791.72,548c-.69-1.09-1.13-1.85-1.64-2.57q-8-11.47-16-22.94-63.19-90.42-126.42-180.81a4.59,4.59,0,0,0-3.2-1.66c-9.08-.13-18.16-.07-27.24-.06a19.55,19.55,0,0,0-2.14.26c.76,1.11,1.31,1.93,1.87,2.74q29.91,42.79,59.83,85.6,41.07,58.77,82.1,117.58a4.15,4.15,0,0,0,3.85,2.08c8.75-.09,17.5,0,26.24,0C789.74,548.21,790.53,548.12,791.72,548Z" transform="translate(-587.23 -324.46)"/></svg>